<svg id="success" xmlns="http://www.w3.org/2000/svg" width="30.624" height="30.624" viewBox="0 0 30.624 30.624">
  <path id="패스_269" data-name="패스 269" d="M15.312,0A15.312,15.312,0,1,0,30.624,15.312,15.329,15.329,0,0,0,15.312,0Zm0,29.446A14.134,14.134,0,1,1,29.446,15.312,14.151,14.151,0,0,1,15.312,29.446Z" fill="#393737"/>
  <path id="패스_270" data-name="패스 270" d="M27.46,15.2,18.409,25.38l-5.453-4.362a.589.589,0,0,0-.736.92l5.889,4.711a.589.589,0,0,0,.809-.069l9.423-10.6a.589.589,0,0,0-.881-.782Z" transform="translate(-4.933 -6.166)" fill="#393737"/>
</svg>
