<svg id="그룹_2240" data-name="그룹 2240" xmlns="http://www.w3.org/2000/svg" width="30.624" height="30.624" viewBox="0 0 30.624 30.624">
  <path id="패스_269" data-name="패스 269" d="M15.312,0A15.312,15.312,0,1,0,30.624,15.312,15.329,15.329,0,0,0,15.312,0ZM10.869,18.574c-7.793,0,13.853,4.532,13.853-3.262s-16.105,4.81-8.312,4.81S11.521,6.95,11.521,14.744,18.663,18.574,10.869,18.574Z" fill="#393737"/>
  <path id="패스_270" data-name="패스 270" d="M27.46,15.2,18.409,25.38l-5.453-4.362a.589.589,0,0,0-.736.92l5.889,4.711a.589.589,0,0,0,.809-.069l9.423-10.6a.589.589,0,0,0-.881-.782Z" transform="translate(-4.933 -6.166)" fill="#fff"/>
</svg>
