<svg xmlns="http://www.w3.org/2000/svg" width="1279" height="78" viewBox="0 0 1279 78">
  <g id="그룹_2154" data-name="그룹 2154" transform="translate(-289 -823)">
    <text id="_07:30" data-name="07:30" transform="translate(295 832)" fill="#707070" font-size="11" font-family="NanumGothic"><tspan x="0" y="0">07:30</tspan></text>
    <text id="노포역" transform="translate(289 878)" fill="#72886c" font-size="15" font-family="NanumGothicBold, NanumGothic"><tspan x="0" y="0">노포역</tspan></text>
    <g id="그룹_2153" data-name="그룹 2153" transform="translate(513.19 822)">
      <text id="_07:40" data-name="07:40" transform="translate(132.811 10)" fill="#707070" font-size="11" font-family="NanumGothic"><tspan x="0" y="0">07:40</tspan></text>
      <text id="부산치유의_숲_-_야외공연" data-name="부산치유의 숲 - 야외공연" transform="translate(64.811 56)" fill="#72886c" font-size="15" font-family="NanumGothicBold, NanumGothic"><tspan x="0" y="0">부산치유의 숲 - 야외공연</tspan></text>
      <text id="심플_하이킹_굿모닝_요가_포레스트_영상_웰니스_플로깅_캠페인" data-name="심플 하이킹 | 굿모닝 요가 | 포레스트 영상 | 웰니스 플로깅 캠페인" transform="translate(-0.189 77)" fill="#707070" font-size="11" font-family="NanumGothic"><tspan x="0" y="0">심플 하이킹 | 굿모닝 요가 | 포레스트 영상 | 웰니스 플로깅 캠페인</tspan></text>
    </g>
    <text id="_10:40" data-name="10:40" transform="translate(1052 832)" fill="#707070" font-size="11" font-family="NanumGothic"><tspan x="0" y="0">10:40</tspan></text>
    <text id="_12:00" data-name="12:00" transform="translate(1297 832)" fill="#707070" font-size="11" font-family="NanumGothic"><tspan x="0" y="0">12:00</tspan></text>
    <text id="_13:00" data-name="13:00" transform="translate(1512 832)" fill="#707070" font-size="11" font-family="NanumGothic"><tspan x="0" y="0">13:00</tspan></text>
    <text id="흥법사_-_한국전통문화체험" data-name="흥법사 - 한국전통문화체험" transform="translate(983 878)" fill="#72886c" font-size="15" font-family="NanumGothicBold, NanumGothic"><tspan x="0" y="0">흥법사 - 한국전통문화체험</tspan></text>
    <text id="점심식사" transform="translate(1283 878)" fill="#72886c" font-size="15" font-family="NanumGothicBold, NanumGothic"><tspan x="0" y="0">점심식사</tspan></text>
    <text id="기념사진촬영" transform="translate(1483 878)" fill="#72886c" font-size="15" font-family="NanumGothicBold, NanumGothic"><tspan x="0" y="0">기념사진촬영</tspan></text>
    <text id="약선요리_체험_천염염색_다도체험_붓다볼_명상_등" data-name="약선요리 체험 | 천염염색 | 다도체험 | 붓다볼 명상 등" transform="translate(949 898)" fill="#707070" font-size="10" font-family="NanumGothic"><tspan x="0" y="0">약선요리 체험 | 천염염색 | 다도체험 | 붓다볼 명상 등</tspan></text>
    <text id="_약선요리_" data-name="(약선요리)" transform="translate(1288 899)" fill="#707070" font-size="11" font-family="NanumGothic"><tspan x="0" y="0">(약선요리)</tspan></text>
    <text id="_해산_" data-name="(해산)" transform="translate(1512 898)" fill="#707070" font-size="10" font-family="NanumGothic"><tspan x="0" y="0">(해산)</tspan></text>
    <path id="패스_8241" data-name="패스 8241" d="M12891,652.681h1220.955" transform="translate(-12580.189 196.479)" fill="none" stroke="#72886c" stroke-width="1"/>
    <circle id="타원_238" data-name="타원 238" cx="5.5" cy="5.5" r="5.5" transform="translate(305 844)" fill="#72886c"/>
    <circle id="타원_240" data-name="타원 240" cx="5.5" cy="5.5" r="5.5" transform="translate(655 844)" fill="#72886c"/>
    <circle id="타원_241" data-name="타원 241" cx="5.5" cy="5.5" r="5.5" transform="translate(1064 844)" fill="#72886c"/>
    <circle id="타원_242" data-name="타원 242" cx="5.5" cy="5.5" r="5.5" transform="translate(1307 844)" fill="#72886c"/>
    <circle id="타원_239" data-name="타원 239" cx="5.5" cy="5.5" r="5.5" transform="translate(1521 844)" fill="#72886c"/>
  </g>
</svg>
