<svg xmlns="http://www.w3.org/2000/svg" width="20" height="20" viewBox="0 0 20 20">
  <path id="_430099_heart_icon" data-name="430099_heart_icon" d="M20.834,34.031a.361.361,0,0,1-.247-.1c-.306-.283-7.5-6.993-9.329-12.2a5.78,5.78,0,0,1-.424-2.187,5.367,5.367,0,0,1,5.188-5.519,5.212,5.212,0,0,1,4.819,3.475,5.208,5.208,0,0,1,4.8-3.437,5.368,5.368,0,0,1,5.188,5.519c0,.11,0,.219-.01.327-.016,4.933-9.345,13.648-9.743,14.017A.363.363,0,0,1,20.834,34.031Zm-4.812-19.2a4.589,4.589,0,0,0-4.436,4.719,4.942,4.942,0,0,0,.366,1.878l.008.02c1.574,4.489,7.578,10.406,8.874,11.647,1.494-1.43,9.238-9.043,9.238-13.192,0-.008,0-.017,0-.025.005-.1.009-.192.009-.29a4.589,4.589,0,0,0-4.436-4.719,4.589,4.589,0,0,0-4.436,4.719c0,.024,0,.047,0,.07l0,.06a.414.414,0,0,1-.107.289.375.375,0,0,1-.542,0,.417.417,0,0,1-.11-.291v-.037c0-.043,0-.085,0-.128A4.59,4.59,0,0,0,16.022,14.831Z" transform="translate(-10.834 -14.031)"/>
</svg>
