<svg xmlns="http://www.w3.org/2000/svg" width="30" height="30" viewBox="0 0 30 30">
  <g id="그룹_2187" data-name="그룹 2187" transform="translate(-1217.6 -751.56)">
    <circle id="타원_14" data-name="타원 14" cx="15" cy="15" r="15" transform="translate(1217.6 751.56)" fill="#72886c" opacity="0.359"/>
    <path id="user" d="M17.734,9.367A8.367,8.367,0,1,0,3.562,15.379a.511.511,0,0,0,.132.12,8.319,8.319,0,0,0,11.348,0,.511.511,0,0,0,.132-.12A8.338,8.338,0,0,0,17.734,9.367ZM9.367,2.046A7.311,7.311,0,0,1,15.106,13.9,4.987,4.987,0,0,0,11.6,10.765a3.817,3.817,0,1,0-4.465,0A4.987,4.987,0,0,0,3.629,13.9,7.311,7.311,0,0,1,9.367,2.046ZM6.6,7.68a2.771,2.771,0,1,1,2.771,2.766A2.771,2.771,0,0,1,6.6,7.68ZM4.508,14.828c.157-1.917,2.191-3.336,4.859-3.336s4.7,1.419,4.859,3.336a7.277,7.277,0,0,1-9.719,0Z" transform="translate(1223.6 757.56)" fill="#72886c"/>
  </g>
</svg>
