<svg xmlns="http://www.w3.org/2000/svg" width="29" height="29" viewBox="0 0 29 29">
  <g id="그룹_2151" data-name="그룹 2151" transform="translate(-1801 -37)">
    <circle id="타원_19" data-name="타원 19" cx="14.5" cy="14.5" r="14.5" transform="translate(1801 37)" fill="#72886c"/>
    <path id="패스_1742" data-name="패스 1742" d="M-2.395-.659A.388.388,0,0,1-2.57-.687a.432.432,0,0,1-.118-.118L-5.124-4.4l-.744.925v2.7A.12.12,0,0,1-6-.647h-1a.12.12,0,0,1-.135-.135V-9.017a.12.12,0,0,1,.135-.135h1a.12.12,0,0,1,.135.135V-5.43l2.9-3.564A.216.216,0,0,1-2.8-9.107h1.229q.124,0,.135.034t-.056.124L-4.3-5.419-1.165-.805q.1.147-.09.147Zm7.208.011a.622.622,0,0,1-.175-.017.243.243,0,0,1-.107-.1L2.8-4.1H1.519v3.3a.13.13,0,0,1-.147.147h-1q-.135,0-.135-.147V-9.017a.131.131,0,0,1,.039-.1.131.131,0,0,1,.1-.039H2.647a3.011,3.011,0,0,1,1.985.609,2.324,2.324,0,0,1,.733,1.895A2.551,2.551,0,0,1,5-5.255a2.288,2.288,0,0,1-.993.863L5.9-.805q.09.158-.135.158ZM1.519-7.968v2.7h.925a1.966,1.966,0,0,0,1.184-.321,1.232,1.232,0,0,0,.44-1.066,1.3,1.3,0,0,0-.344-.976A1.266,1.266,0,0,0,2.8-7.968Z" transform="translate(1816.144 56.152)" fill="#fff"/>
  </g>
</svg>
