<svg xmlns="http://www.w3.org/2000/svg" width="18.55" height="18.55" viewBox="0 0 18.55 18.55">
  <g id="그룹_2150" data-name="그룹 2150" transform="translate(-1718 -42)">
    <g id="그룹_1268" data-name="그룹 1268" transform="translate(1718 42)">
      <path id="패스_1678" data-name="패스 1678" d="M8.169,0a8.169,8.169,0,1,0,8.169,8.169A8.179,8.179,0,0,0,8.169,0Zm0,14.83A6.661,6.661,0,1,1,14.83,8.169,6.669,6.669,0,0,1,8.169,14.83Z" fill="#4d4848"/>
    </g>
    <g id="그룹_1269" data-name="그룹 1269" transform="translate(1730.719 54.719)">
      <path id="패스_1679" data-name="패스 1679" d="M356.656,355.59l-4.323-4.323a.754.754,0,0,0-1.066,1.066l4.323,4.323a.754.754,0,0,0,1.066-1.066Z" transform="translate(-351.046 -351.046)" fill="#4d4848"/>
    </g>
  </g>
</svg>
